<svg xmlns="http://www.w3.org/2000/svg" viewBox="0 0 1280 1000" width="1280" height="1000"
  font-family="'Segoe UI',system-ui,sans-serif">
<defs>
  <linearGradient id="bg" x1="0" y1="0" x2="1" y2="1">
    <stop offset="0%" stop-color="#0d1117"/><stop offset="100%" stop-color="#0d1117"/>
  </linearGradient>
  <linearGradient id="stripeGrad" x1="0" y1="0" x2="0" y2="1">
    <stop offset="0%" stop-color="#1e1b4b"/><stop offset="100%" stop-color="#13113a"/>
  </linearGradient>
  <filter id="sh"><feDropShadow dx="0" dy="3" stdDeviation="6" flood-color="#000" flood-opacity="0.55"/></filter>
  <filter id="glow"><feGaussianBlur stdDeviation="5" result="b"/><feMerge><feMergeNode in="b"/><feMergeNode in="SourceGraphic"/></feMerge></filter>
  <marker id="arrB" markerWidth="9" markerHeight="9" refX="7" refY="4.5" orient="auto">
    <path d="M0,0 L0,9 L9,4.5 z" fill="#60a5fa"/>
  </marker>
  <marker id="arrP" markerWidth="9" markerHeight="9" refX="7" refY="4.5" orient="auto">
    <path d="M0,0 L0,9 L9,4.5 z" fill="#a78bfa"/>
  </marker>
  <marker id="arrG" markerWidth="9" markerHeight="9" refX="7" refY="4.5" orient="auto">
    <path d="M0,0 L0,9 L9,4.5 z" fill="#22c55e"/>
  </marker>
  <marker id="arrO" markerWidth="9" markerHeight="9" refX="7" refY="4.5" orient="auto">
    <path d="M0,0 L0,9 L9,4.5 z" fill="#f97316"/>
  </marker>
  <marker id="arrR" markerWidth="9" markerHeight="9" refX="7" refY="4.5" orient="auto">
    <path d="M0,0 L0,9 L9,4.5 z" fill="#f87171"/>
  </marker>
  <!-- Stripe icon symbol -->
  <symbol id="stripe-icon" viewBox="0 0 24 24">
    <path d="M13.976 9.15c-2.172-.806-3.356-1.426-3.356-2.409 0-.831.683-1.305 1.901-1.305 2.227 0 4.515.858 6.09 1.631l.89-5.494C18.252.975 15.697 0 12.165 0 9.667 0 7.589.654 6.104 1.872 4.56 3.147 3.757 4.992 3.757 7.218c0 4.039 2.467 5.76 6.476 7.219 2.585.92 3.445 1.574 3.445 2.583 0 .98-.84 1.545-2.354 1.545-1.875 0-4.965-.921-6.99-2.109l-.9 5.555C5.175 22.99 8.385 24 11.714 24c2.641 0 4.843-.624 6.328-1.813 1.664-1.305 2.525-3.236 2.525-5.732 0-4.128-2.524-5.851-6.594-7.305h.003z"/>
  </symbol>
  <!-- PG icon symbol -->
  <symbol id="pg-icon" viewBox="0 0 24 24">
    <path d="M23.5594 14.7228a.5269.5269 0 0 0-.0563-.1191c-.139-.2632-.4768-.3418-1.0074-.2321-1.6533.3411-2.2935.1312-2.5256-.0191 1.342-2.0482 2.445-4.522 3.0411-6.8297.2714-1.0507.7982-3.5237.1222-4.7316a1.5641 1.5641 0 0 0-.1509-.235C21.6931.9086 19.8007.0248 17.5099.0005c-1.4947-.0158-2.7705.3461-3.1161.4794a9.449 9.449 0 0 0-.5159-.0816 8.044 8.044 0 0 0-1.3114-.1278c-1.1822-.0184-2.2038.2642-3.0498.8406-.8573-.3211-4.7888-1.645-7.2219.0788C.9359 2.1526.3086 3.8733.4302 6.3043c.0409.818.5069 3.334 1.2423 5.7436.4598 1.5065.9387 2.7019 1.4334 3.582.553.9942 1.1259 1.5933 1.7143 1.7895.4474.1491 1.1327.1441 1.8581-.7279.8012-.9635 1.5903-1.8258 1.9446-2.2069.4351.2355.9064.3625 1.39.3772a.0569.0569 0 0 0 .0004.0041 11.0312 11.0312 0 0 0-.2472.3054c-.3389.4302-.4094.5197-1.5002.7443-.3102.064-1.1344.2339-1.1464.8115-.0025.1224.0329.2309.0919.3268.2269.4231.9216.6097 1.015.6331 1.3345.3335 2.5044.092 3.3714-.6787-.017 2.231.0775 4.4174.3454 5.0874.2212.5529.7618 1.9045 2.4692 1.9043.2505 0 .5263-.0291.8296-.0941 1.7819-.3821 2.5557-1.1696 2.855-2.9059.1503-.8707.4016-2.8753.5388-4.1012.0169-.0703.0357-.1207.057-.1362.0007-.0005.0697-.0471.4272.0307a.3673.3673 0 0 0 .0443.0068l.2539.0223.0149.001c.8468.0384 1.9114-.1426 2.5312-.4308.6438-.2988 1.8057-1.0323 1.5951-1.6698z"/>
  </symbol>
</defs>

<rect width="1280" height="1000" fill="url(#bg)"/>

<!-- title -->
<rect x="0" y="0" width="1280" height="60" fill="#111827" opacity="0.95"/>
<text x="640" y="24" text-anchor="middle" font-size="19" font-weight="700" fill="#f1f5f9">TenantForge</text>
<text x="640" y="46" text-anchor="middle" font-size="11" fill="#64748b" letter-spacing="2">BILLING FLOW  ·  CHECKOUT  ·  WEBHOOK SYNC  ·  ENFORCEMENT</text>

<!-- ══════════════════════════════════════
     A. CHECKOUT FLOW
     ══════════════════════════════════════ -->
<rect x="14" y="66" width="1252" height="12" rx="0" fill="#1e2433"/>
<text x="22" y="82" font-size="10" font-weight="700" fill="#60a5fa" letter-spacing="1">A.  CHECKOUT FLOW  /  POST /v1/billing/checkout</text>

<!-- Step 1: Client -->
<rect x="14" y="90" width="158" height="96" rx="10" fill="#1a1d2e" stroke="#334155" stroke-width="1.5" filter="url(#sh)"/>
<text x="93" y="112" text-anchor="middle" font-size="9" font-weight="700" fill="#94a3b8">Client (admin)</text>
<text x="93" y="126" text-anchor="middle" font-size="8.5" fill="#64748b">POST /v1/billing/checkout</text>
<text x="93" y="140" text-anchor="middle" font-size="8.5" fill="#94a3b8">{ price_id,</text>
<text x="93" y="154" text-anchor="middle" font-size="8.5" fill="#94a3b8">  success_url,</text>
<text x="93" y="168" text-anchor="middle" font-size="8.5" fill="#94a3b8">  cancel_url }</text>
<text x="93" y="180" text-anchor="middle" font-size="7.5" fill="#475569">Bearer JWT · min role: admin</text>

<line x1="172" y1="138" x2="198" y2="138" stroke="#60a5fa" stroke-width="2" marker-end="url(#arrB)"/>

<!-- Step 2: billing.routes validation -->
<rect x="198" y="90" width="210" height="96" rx="10" fill="#1a2535" stroke="#3b82f6" stroke-width="2" filter="url(#sh)"/>
<text x="303" y="110" text-anchor="middle" font-size="10" font-weight="700" fill="#60a5fa">billing.routes</text>
<text x="303" y="126" text-anchor="middle" font-size="8.5" fill="#94a3b8">requireRole(admin)</text>
<text x="303" y="140" text-anchor="middle" font-size="8.5" fill="#94a3b8">price_id ∈ allowedPriceIds?</text>
<text x="303" y="154" text-anchor="middle" font-size="8.5" fill="#94a3b8">origin ∈ allowedRedirectOrigins?</text>
<text x="303" y="168" text-anchor="middle" font-size="8.5" fill="#f87171">400 bad price / open redirect</text>
<text x="303" y="180" text-anchor="middle" font-size="7.5" fill="#475569">env: STRIPE_PRICE_ID_LIST</text>

<line x1="408" y1="138" x2="434" y2="138" stroke="#a78bfa" stroke-width="2" marker-end="url(#arrP)"/>

<!-- Step 3: ensureCustomer -->
<rect x="434" y="90" width="228" height="96" rx="10" fill="#1a2535" stroke="#7c3aed" stroke-width="2" filter="url(#sh)"/>
<text x="548" y="110" text-anchor="middle" font-size="10" font-weight="700" fill="#a78bfa">billing.service</text>
<text x="548" y="126" text-anchor="middle" font-size="9" fill="#c4b5fd">ensureCustomer()</text>
<text x="548" y="140" text-anchor="middle" font-size="8.5" fill="#94a3b8">SELECT orgs WHERE id=$1 FOR UPDATE</text>
<text x="548" y="154" text-anchor="middle" font-size="8" fill="#64748b">row-lock → serialize concurrent</text>
<text x="548" y="168" text-anchor="middle" font-size="8" fill="#64748b">checkout calls, prevent duplicate</text>
<text x="548" y="182" text-anchor="middle" font-size="8" fill="#64748b">Stripe customers under concurrency</text>

<line x1="662" y1="138" x2="696" y2="138" stroke="#a78bfa" stroke-width="2" marker-end="url(#arrP)"/>

<!-- Step 4: Stripe box -->
<rect x="696" y="80" width="188" height="116" rx="10" fill="url(#stripeGrad)" stroke="#7c3aed" stroke-width="2.5" filter="url(#sh)"/>
<!-- stripe logo -->
<use href="#stripe-icon" x="706" y="90" width="28" height="28" fill="#a78bfa"/>
<text x="820" y="108" text-anchor="middle" font-size="16" font-weight="800" fill="#a78bfa" filter="url(#glow)">stripe</text>
<text x="820" y="126" text-anchor="middle" font-size="8.5" fill="#c4b5fd">createCustomer()</text>
<text x="820" y="140" text-anchor="middle" font-size="8" fill="#64748b">if no stripe_customer_id</text>
<text x="820" y="156" text-anchor="middle" font-size="8.5" fill="#c4b5fd">createCheckoutSession()</text>
<text x="820" y="170" text-anchor="middle" font-size="8" fill="#64748b">mode: subscription → session.url</text>
<text x="820" y="184" text-anchor="middle" font-size="8" fill="#64748b">null url → 502 badGateway</text>

<line x1="884" y1="138" x2="910" y2="138" stroke="#60a5fa" stroke-width="2" marker-end="url(#arrB)"/>

<!-- Step 5: DB write -->
<rect x="910" y="90" width="214" height="96" rx="10" fill="#1a2535" stroke="#0891b2" stroke-width="2" filter="url(#sh)"/>
<use href="#pg-icon" x="920" y="96" width="18" height="18" fill="#38bdf8"/>
<text x="1017" y="112" text-anchor="middle" font-size="10" font-weight="700" fill="#38bdf8">Postgres (ownerPool)</text>
<text x="1017" y="128" text-anchor="middle" font-size="8.5" fill="#94a3b8">UPDATE organizations</text>
<text x="1017" y="142" text-anchor="middle" font-size="8.5" fill="#94a3b8">SET stripe_customer_id=$1</text>
<text x="1017" y="156" text-anchor="middle" font-size="8" fill="#64748b">WHERE id=$2</text>
<text x="1017" y="170" text-anchor="middle" font-size="8" fill="#64748b">AND stripe_customer_id IS NULL</text>
<text x="1017" y="184" text-anchor="middle" font-size="8" fill="#64748b">COMMIT</text>

<line x1="1124" y1="138" x2="1150" y2="138" stroke="#22c55e" stroke-width="2" marker-end="url(#arrG)"/>

<!-- Step 6: response -->
<rect x="1150" y="90" width="116" height="96" rx="10" fill="#0d1a10" stroke="#166534" stroke-width="2" filter="url(#sh)"/>
<text x="1208" y="112" text-anchor="middle" font-size="9" font-weight="700" fill="#4ade80">201 Created</text>
<text x="1208" y="128" text-anchor="middle" font-size="8.5" fill="#86efac">{ checkout_url,</text>
<text x="1208" y="142" text-anchor="middle" font-size="8.5" fill="#86efac">  session_id }</text>
<text x="1208" y="158" text-anchor="middle" font-size="8" fill="#64748b">client redirects</text>
<text x="1208" y="172" text-anchor="middle" font-size="8" fill="#64748b">to Stripe hosted</text>
<text x="1208" y="184" text-anchor="middle" font-size="8" fill="#64748b">checkout page</text>

<!-- ══════════════════════════════════════
     B. PORTAL FLOW
     ══════════════════════════════════════ -->
<rect x="14" y="202" width="1252" height="12" rx="0" fill="#1e2433"/>
<text x="22" y="218" font-size="10" font-weight="700" fill="#34d399" letter-spacing="1">B.  CUSTOMER PORTAL  /  POST /v1/billing/portal  (self-service plan management)</text>

<rect x="14" y="226" width="158" height="80" rx="10" fill="#1a1d2e" stroke="#334155" stroke-width="1.5" filter="url(#sh)"/>
<text x="93" y="246" text-anchor="middle" font-size="9" fill="#94a3b8">POST /v1/billing/portal</text>
<text x="93" y="260" text-anchor="middle" font-size="8.5" fill="#94a3b8">{ return_url }</text>
<text x="93" y="274" text-anchor="middle" font-size="8" fill="#64748b">admin+ · origin validated</text>
<text x="93" y="288" text-anchor="middle" font-size="8" fill="#475569">open-redirect protection</text>
<text x="93" y="299" text-anchor="middle" font-size="7.5" fill="#475569">reuses ensureCustomer()</text>

<line x1="172" y1="266" x2="198" y2="266" stroke="#34d399" stroke-width="2" marker-end="url(#arrG)"/>
<rect x="198" y="226" width="464" height="80" rx="10" fill="#1a2535" stroke="#059669" stroke-width="2" filter="url(#sh)"/>
<text x="430" y="248" text-anchor="middle" font-size="9" font-weight="700" fill="#34d399">billing.service.openPortal()  →  ensureCustomer()  →  stripe.createPortalSession()</text>
<text x="430" y="264" text-anchor="middle" font-size="8.5" fill="#94a3b8">Same SELECT … FOR UPDATE lock on organizations → no duplicate Stripe customers.</text>
<text x="430" y="278" text-anchor="middle" font-size="8.5" fill="#94a3b8">billingPortal.sessions.create({ customerId, returnUrl }) → hosted portal URL.</text>
<text x="430" y="292" text-anchor="middle" font-size="8" fill="#64748b">Error: AppError pass-through · Stripe SDK errors → wrapStripeError() → 502 badGateway.</text>

<line x1="662" y1="266" x2="696" y2="266" stroke="#a78bfa" stroke-width="2" marker-end="url(#arrP)"/>
<rect x="696" y="226" width="188" height="80" rx="10" fill="url(#stripeGrad)" stroke="#7c3aed" stroke-width="2" filter="url(#sh)"/>
<use href="#stripe-icon" x="706" y="235" width="22" height="22" fill="#a78bfa"/>
<text x="820" y="250" text-anchor="middle" font-size="12" font-weight="700" fill="#a78bfa">stripe</text>
<text x="820" y="266" text-anchor="middle" font-size="8.5" fill="#c4b5fd">billingPortal.sessions.create()</text>
<text x="820" y="280" text-anchor="middle" font-size="8" fill="#64748b">→ hosted portal URL</text>

<line x1="884" y1="266" x2="1150" y2="266" stroke="#22c55e" stroke-width="2" marker-end="url(#arrG)"/>
<rect x="1150" y="226" width="116" height="80" rx="10" fill="#0d1a10" stroke="#166534" stroke-width="2" filter="url(#sh)"/>
<text x="1208" y="248" text-anchor="middle" font-size="9" font-weight="700" fill="#4ade80">201 Created</text>
<text x="1208" y="264" text-anchor="middle" font-size="8.5" fill="#86efac">{ portal_url }</text>
<text x="1208" y="280" text-anchor="middle" font-size="8" fill="#64748b">client redirects</text>
<text x="1208" y="292" text-anchor="middle" font-size="8" fill="#64748b">to Stripe portal</text>

<!-- ══════════════════════════════════════
     C. WEBHOOK SYNC
     ══════════════════════════════════════ -->
<rect x="14" y="322" width="1252" height="12" rx="0" fill="#1e2433"/>
<text x="22" y="338" font-size="10" font-weight="700" fill="#f97316" letter-spacing="1">C.  STRIPE WEBHOOK SYNC  /  POST /webhooks/stripe  (async · Stripe-initiated)</text>

<!-- Stripe fires -->
<rect x="14" y="346" width="158" height="114" rx="10" fill="url(#stripeGrad)" stroke="#f97316" stroke-width="2.5" filter="url(#sh)"/>
<use href="#stripe-icon" x="24" y="354" width="28" height="28" fill="#f97316"/>
<text x="105" y="372" text-anchor="middle" font-size="14" font-weight="800" fill="#f97316" filter="url(#glow)">stripe</text>
<text x="93" y="390" text-anchor="middle" font-size="8" fill="#94a3b8">subscription.created</text>
<text x="93" y="403" text-anchor="middle" font-size="8" fill="#94a3b8">subscription.updated</text>
<text x="93" y="416" text-anchor="middle" font-size="8" fill="#94a3b8">subscription.deleted</text>
<text x="93" y="429" text-anchor="middle" font-size="8" fill="#94a3b8">invoice.payment_*</text>
<text x="93" y="445" text-anchor="middle" font-size="8" fill="#f97316">retries on non-2xx</text>
<text x="93" y="456" text-anchor="middle" font-size="7.5" fill="#475569">rate-limit EXEMPT</text>

<line x1="172" y1="403" x2="198" y2="403" stroke="#f97316" stroke-width="2.5" stroke-dasharray="6,3" marker-end="url(#arrO)"/>

<!-- webhook.routes -->
<rect x="198" y="346" width="210" height="114" rx="10" fill="#1a2535" stroke="#ea580c" stroke-width="2" filter="url(#sh)"/>
<text x="303" y="368" text-anchor="middle" font-size="10" font-weight="700" fill="#fb923c">webhook.routes</text>
<text x="303" y="384" text-anchor="middle" font-size="8.5" fill="#94a3b8">raw body parser (1 MiB cap)</text>
<text x="303" y="398" text-anchor="middle" font-size="8.5" fill="#94a3b8">stripe-signature header check</text>
<text x="303" y="412" text-anchor="middle" font-size="8.5" fill="#94a3b8">constructEvent() HMAC verify</text>
<text x="303" y="426" text-anchor="middle" font-size="8.5" fill="#f87171">invalid sig → 400 · no state change</text>
<text x="303" y="440" text-anchor="middle" font-size="8" fill="#64748b">no auth middleware</text>
<text x="303" y="454" text-anchor="middle" font-size="7.5" fill="#475569">exempt from all rate limits</text>

<line x1="408" y1="403" x2="434" y2="403" stroke="#f97316" stroke-width="2" marker-end="url(#arrO)"/>

<!-- webhook.service step 1 -->
<rect x="434" y="346" width="228" height="114" rx="10" fill="#1a2535" stroke="#ea580c" stroke-width="2" filter="url(#sh)"/>
<text x="548" y="366" text-anchor="middle" font-size="10" font-weight="700" fill="#fb923c">webhook.service  step 1</text>
<text x="548" y="382" text-anchor="middle" font-size="8.5" fill="#94a3b8">resolve subscription id from event</text>
<text x="548" y="396" text-anchor="middle" font-size="8.5" fill="#94a3b8">irrelevant type → recordOnly()</text>
<text x="548" y="410" text-anchor="middle" font-size="8" fill="#64748b">  dedup-only, no sync work</text>
<text x="548" y="424" text-anchor="middle" font-size="8.5" fill="#94a3b8">relevant → re-fetch subscription</text>
<text x="548" y="438" text-anchor="middle" font-size="8" fill="#64748b">  from Stripe API (source of truth)</text>
<text x="548" y="452" text-anchor="middle" font-size="8" fill="#f87171">  fetch fail → throw → Stripe retries</text>

<line x1="662" y1="403" x2="696" y2="403" stroke="#a78bfa" stroke-width="2" marker-end="url(#arrP)"/>

<!-- Stripe refetch -->
<rect x="696" y="346" width="188" height="114" rx="10" fill="url(#stripeGrad)" stroke="#7c3aed" stroke-width="2" filter="url(#sh)"/>
<use href="#stripe-icon" x="706" y="354" width="22" height="22" fill="#a78bfa"/>
<text x="820" y="370" text-anchor="middle" font-size="12" font-weight="700" fill="#8b5cf6" filter="url(#glow)">stripe</text>
<text x="820" y="388" text-anchor="middle" font-size="8.5" fill="#c4b5fd">subscriptions.retrieve(subId)</text>
<text x="820" y="403" text-anchor="middle" font-size="8" fill="#64748b">source of truth re-fetch</text>
<text x="820" y="417" text-anchor="middle" font-size="8" fill="#64748b">tolerates out-of-order delivery</text>
<text x="820" y="431" text-anchor="middle" font-size="8" fill="#64748b">returns { status, plan,</text>
<text x="820" y="445" text-anchor="middle" font-size="8" fill="#64748b">customerId, currentPeriodEnd }</text>

<line x1="884" y1="403" x2="910" y2="403" stroke="#f97316" stroke-width="2" marker-end="url(#arrO)"/>

<!-- atomic transaction box -->
<rect x="910" y="338" width="356" height="130" rx="10" fill="#1a1000" stroke="#f59e0b" stroke-width="2" filter="url(#sh)"/>
<use href="#pg-icon" x="920" y="346" width="18" height="18" fill="#fbbf24"/>
<text x="1088" y="362" text-anchor="middle" font-size="10" font-weight="700" fill="#fbbf24">Single Atomic Transaction</text>
<text x="922" y="380" font-size="8.5" fill="#94a3b8">① INSERT processed_webhooks(event_id)</text><text x="1220" y="380" font-size="8.5" fill="#64748b">UNIQUE dedup</text>
<text x="922" y="395" font-size="8.5" fill="#f87171">   23505 → ROLLBACK → return "duplicate"</text>
<text x="922" y="410" font-size="8.5" fill="#94a3b8">② SELECT orgs WHERE stripe_customer_id</text>
<text x="922" y="425" font-size="8.5" fill="#94a3b8">③ UPSERT subscriptions (status, plan, period_end)</text>
<text x="922" y="440" font-size="8.5" fill="#94a3b8">④ UPDATE organizations SET plan=$newPlan</text>
<text x="922" y="455" font-size="8.5" fill="#94a3b8">⑤ INSERT audit_log 'billing.synced' → COMMIT</text>

<!-- response webhook -->
<rect x="1150" y="346" width="116" height="122" rx="10" fill="#0d1a10" stroke="#166534" stroke-width="2" filter="url(#sh)"/>
<text x="1208" y="366" text-anchor="middle" font-size="9" font-weight="700" fill="#4ade80">200 OK</text>
<text x="1208" y="382" text-anchor="middle" font-size="8.5" fill="#86efac">{ received: true,</text>
<text x="1208" y="396" text-anchor="middle" font-size="8.5" fill="#86efac">  outcome }</text>
<text x="1208" y="413" text-anchor="middle" font-size="8" fill="#64748b">always 200 after</text>
<text x="1208" y="427" text-anchor="middle" font-size="8" fill="#64748b">HMAC verify so</text>
<text x="1208" y="441" text-anchor="middle" font-size="8" fill="#64748b">Stripe stops</text>
<text x="1208" y="455" text-anchor="middle" font-size="8" fill="#64748b">retrying</text>
<text x="1208" y="460" text-anchor="middle" font-size="8" fill="#64748b">(R10.3/R10.7)</text>

<!-- status mapping pill -->
<rect x="14" y="474" width="876" height="50" rx="8" fill="#0c1a2e" stroke="#1e3a5f" stroke-width="1.5"/>
<text x="22" y="492" font-size="9" font-weight="700" fill="#60a5fa">Status Mapping  (mapStatus)</text>
<text x="22" y="508" font-size="8.5" fill="#94a3b8">active / trialing → active / trialing  </text>
<text x="245" y="508" font-size="8.5" fill="#fbbf24">past_due / unpaid → past_due  (writes blocked)</text>
<text x="560" y="508" font-size="8.5" fill="#f87171">canceled / incomplete_expired → canceled + plan='free'</text>

<!-- ══════════════════════════════════════
     D. ENFORCEMENT
     ══════════════════════════════════════ -->
<rect x="14" y="540" width="1252" height="12" rx="0" fill="#1e2433"/>
<text x="22" y="556" font-size="10" font-weight="700" fill="#f87171" letter-spacing="1">D.  WRITE ENFORCEMENT  /  called by projects.service on every write path</text>

<!-- getBillingState -->
<rect x="14" y="564" width="296" height="140" rx="10" fill="#1a2535" stroke="#dc2626" stroke-width="2" filter="url(#sh)"/>
<use href="#pg-icon" x="24" y="572" width="18" height="18" fill="#f87171"/>
<text x="162" y="588" text-anchor="middle" font-size="10" font-weight="700" fill="#f87171">getBillingState(tenantId)</text>
<rect x="24" y="596" width="276" height="40" rx="6" fill="#1a0808"/>
<text x="162" y="612" text-anchor="middle" font-size="8.5" fill="#94a3b8">SELECT plan FROM organizations WHERE id=$1</text>
<text x="162" y="626" text-anchor="middle" font-size="8.5" fill="#94a3b8">SELECT status FROM subscriptions … DESC LIMIT 1</text>
<text x="162" y="644" text-anchor="middle" font-size="8.5" fill="#64748b">fallback: status='active' if no sub row</text>
<text x="162" y="658" text-anchor="middle" font-size="8" fill="#64748b">(free tenants that never subscribed)</text>
<text x="162" y="695" text-anchor="middle" font-size="8" fill="#475569">ownerPool · not tenant-scoped</text>

<!-- assertWriteAllowed -->
<rect x="326" y="564" width="296" height="140" rx="10" fill="#1a2535" stroke="#dc2626" stroke-width="2" filter="url(#sh)"/>
<text x="474" y="585" text-anchor="middle" font-size="10" font-weight="700" fill="#f87171">assertWriteAllowed(status)</text>
<rect x="336" y="596" width="276" height="54" rx="6" fill="#300"/>
<text x="474" y="616" text-anchor="middle" font-size="9" fill="#fca5a5">status = 'past_due'  →  402 Payment Required</text>
<text x="474" y="631" text-anchor="middle" font-size="9" fill="#fca5a5">status = 'canceled'  →  402 Payment Required</text>
<text x="474" y="645" text-anchor="middle" font-size="8.5" fill="#64748b">"Writes are disabled while subscription is {status}"</text>
<rect x="336" y="658" width="276" height="28" rx="6" fill="#0d2010"/>
<text x="474" y="676" text-anchor="middle" font-size="9" fill="#4ade80">active | trialing  →  passes silently · writes allowed</text>
<text x="474" y="695" text-anchor="middle" font-size="8" fill="#64748b">reads never blocked · no check on GET routes</text>

<!-- assertProjectQuota -->
<rect x="638" y="564" width="360" height="140" rx="10" fill="#1a2535" stroke="#dc2626" stroke-width="2" filter="url(#sh)"/>
<use href="#pg-icon" x="648" y="572" width="18" height="18" fill="#f87171"/>
<text x="818" y="588" text-anchor="middle" font-size="10" font-weight="700" fill="#f87171">assertProjectQuota(db, plan)</text>
<rect x="648" y="596" width="340" height="30" rx="6" fill="#1a0808"/>
<text x="818" y="614" text-anchor="middle" font-size="8.5" fill="#94a3b8">SELECT count(*) FROM projects WHERE status &lt;&gt; 'archived'</text>
<text x="818" y="628" text-anchor="middle" font-size="8" fill="#64748b">(on req.db · RLS auto-scopes to current tenant)</text>
<rect x="648" y="632" width="340" height="26" rx="6" fill="#1a1000"/>
<text x="818" y="649" text-anchor="middle" font-size="8.5" fill="#fbbf24">free=3  starter=25  pro=null (unlimited)</text>
<text x="648" y="672" font-size="8.5" fill="#f87171">count ≥ cap → 403 QUOTA_EXCEEDED</text>
<text x="818" y="690" text-anchor="middle" font-size="8" fill="#64748b">unknown plan falls back to free cap</text>
<text x="818" y="700" text-anchor="middle" font-size="8" fill="#475569">called only on POST /v1/projects (create)</text>

<!-- arrows between enforcement steps -->
<line x1="310" y1="634" x2="326" y2="634" stroke="#dc2626" stroke-width="1.5" marker-end="url(#arrR)"/>
<line x1="622" y1="634" x2="638" y2="634" stroke="#dc2626" stroke-width="1.5" marker-end="url(#arrR)"/>

<!-- caller note -->
<rect x="1014" y="564" width="252" height="140" rx="10" fill="#0c1a2e" stroke="#1e3a5f" stroke-width="1.5"/>
<text x="1024" y="584" font-size="9" font-weight="700" fill="#60a5fa">Called by projects.service</text>
<text x="1024" y="600" font-size="8.5" fill="#94a3b8">POST   /v1/projects</text>
<text x="1150" y="600" font-size="8.5" fill="#64748b">→ both checks</text>
<text x="1024" y="615" font-size="8.5" fill="#94a3b8">PATCH  /v1/projects/:id</text>
<text x="1150" y="615" font-size="8.5" fill="#64748b">→ writeAllowed</text>
<text x="1024" y="630" font-size="8.5" fill="#94a3b8">DELETE /v1/projects/:id</text>
<text x="1150" y="630" font-size="8.5" fill="#64748b">→ writeAllowed</text>
<text x="1024" y="645" font-size="8" fill="#64748b">GET (reads) / no enforcement</text>
<line x1="1024" y1="656" x2="1254" y2="656" stroke="#1e3a5f" stroke-width="0.5"/>
<text x="1024" y="672" font-size="8.5" fill="#64748b">getBillingState uses ownerPool</text>
<text x="1024" y="686" font-size="8.5" fill="#64748b">assertProjectQuota uses req.db</text>
<text x="1024" y="700" font-size="8.5" fill="#64748b">(app role, RLS active)</text>

<!-- ═════════ PLAN TABLE ═════════ -->
<rect x="14" y="724" width="896" height="100" rx="10" fill="#0c1a2e" stroke="#1e3a5f" stroke-width="1.5"/>
<text x="22" y="744" font-size="10" font-weight="700" fill="#60a5fa">Plan Summary</text>
<!-- header -->
<rect x="22" y="750" width="880" height="20" rx="4" fill="#1e293b"/>
<text x="100" y="764" text-anchor="middle" font-size="8.5" font-weight="600" fill="#94a3b8">Plan</text>
<text x="260" y="764" text-anchor="middle" font-size="8.5" font-weight="600" fill="#94a3b8">Project quota</text>
<text x="460" y="764" text-anchor="middle" font-size="8.5" font-weight="600" fill="#94a3b8">Write access (past_due/canceled)</text>
<text x="680" y="764" text-anchor="middle" font-size="8.5" font-weight="600" fill="#94a3b8">Per-tenant rate limit</text>
<text x="100" y="782" text-anchor="middle" font-size="8.5" fill="#94a3b8">free</text><text x="260" y="782" text-anchor="middle" font-size="8.5" fill="#fbbf24">3 active projects</text><text x="460" y="782" text-anchor="middle" font-size="8.5" fill="#f87171">blocked · 402</text><text x="680" y="782" text-anchor="middle" font-size="8.5" fill="#94a3b8">60 cap · 1 req/s</text>
<text x="100" y="798" text-anchor="middle" font-size="8.5" fill="#94a3b8">starter</text><text x="260" y="798" text-anchor="middle" font-size="8.5" fill="#fbbf24">25 active projects</text><text x="460" y="798" text-anchor="middle" font-size="8.5" fill="#f87171">blocked · 402</text><text x="680" y="798" text-anchor="middle" font-size="8.5" fill="#94a3b8">300 cap · 5 req/s</text>
<text x="100" y="814" text-anchor="middle" font-size="8.5" fill="#94a3b8">pro</text><text x="260" y="814" text-anchor="middle" font-size="8.5" fill="#4ade80">unlimited</text><text x="460" y="814" text-anchor="middle" font-size="8.5" fill="#f87171">blocked · 402</text><text x="680" y="814" text-anchor="middle" font-size="8.5" fill="#94a3b8">1000 cap · 16.7 req/s</text>

<!-- edge legend -->
<rect x="926" y="724" width="340" height="100" rx="10" fill="#111827" stroke="#1e293b" stroke-width="1.5"/>
<text x="936" y="744" font-size="9" font-weight="700" fill="#64748b">EDGE LEGEND</text>
<line x1="936" y1="758" x2="968" y2="758" stroke="#60a5fa" stroke-width="2"/><text x="974" y="762" font-size="8.5" fill="#94a3b8">Auth API request</text>
<line x1="936" y1="774" x2="968" y2="774" stroke="#a78bfa" stroke-width="2"/><text x="974" y="778" font-size="8.5" fill="#94a3b8">Stripe API call (outbound)</text>
<line x1="1100" y1="758" x2="1132" y2="758" stroke="#f97316" stroke-width="2" stroke-dasharray="6,2"/><text x="1138" y="762" font-size="8.5" fill="#94a3b8">Stripe webhook (inbound)</text>
<line x1="1100" y1="774" x2="1132" y2="774" stroke="#22c55e" stroke-width="2"/><text x="1138" y="778" font-size="8.5" fill="#94a3b8">Success response</text>
<line x1="936" y1="790" x2="968" y2="790" stroke="#f87171" stroke-width="2"/><text x="974" y="794" font-size="8.5" fill="#94a3b8">Enforcement / error</text>
<line x1="1100" y1="790" x2="1132" y2="790" stroke="#fbbf24" stroke-width="2"/><text x="1138" y="794" font-size="8.5" fill="#94a3b8">DB (ownerPool)</text>
<line x1="936" y1="806" x2="968" y2="806" stroke="#38bdf8" stroke-width="2"/><text x="974" y="810" font-size="8.5" fill="#94a3b8">DB write (transaction)</text>
</svg>
